{
	"asset":{
		"generator":"Khronos glTF Blender I/O v4.5.49",
		"version":"2.0"
	},
	"extensionsUsed":[
		"KHR_materials_unlit"
	],
	"scene":0,
	"scenes":[
		{
			"name":"Scene",
			"nodes":[
				0
			]
		}
	],
	"nodes":[
		{
			"mesh":0,
			"name":"flower",
			"rotation":[
				-0.6854660511016846,
				-0.6280267834663391,
				0.1958603709936142,
				0.3120216429233551
			],
			"scale":[
				1.6610270738601685,
				1.6610270738601685,
				1.6610268354415894
			]
		}
	],
	"materials":[
		{
			"doubleSided":true,
			"extensions":{
				"KHR_materials_unlit":{}
			},
			"name":"Material.003",
			"pbrMetallicRoughness":{
				"baseColorTexture":{
					"index":0
				},
				"metallicFactor":0,
				"roughnessFactor":0.9
			}
		},
		{
			"doubleSided":true,
			"extensions":{
				"KHR_materials_unlit":{}
			},
			"name":"Material.004",
			"pbrMetallicRoughness":{
				"baseColorTexture":{
					"index":1
				},
				"metallicFactor":0,
				"roughnessFactor":0.9
			}
		},
		{
			"doubleSided":true,
			"extensions":{
				"KHR_materials_unlit":{}
			},
			"name":"Material.001",
			"pbrMetallicRoughness":{
				"baseColorTexture":{
					"index":2
				},
				"metallicFactor":0,
				"roughnessFactor":0.9
			}
		}
	],
	"meshes":[
		{
			"name":"NurbsCurve",
			"primitives":[
				{
					"attributes":{
						"POSITION":0,
						"NORMAL":1,
						"TEXCOORD_0":2
					},
					"indices":3,
					"material":0
				},
				{
					"attributes":{
						"POSITION":4,
						"NORMAL":5,
						"TEXCOORD_0":6
					},
					"indices":7,
					"material":1
				},
				{
					"attributes":{
						"POSITION":8,
						"NORMAL":9,
						"TEXCOORD_0":10
					},
					"indices":11,
					"material":2
				}
			]
		}
	],
	"textures":[
		{
			"sampler":0,
			"source":0
		},
		{
			"sampler":0,
			"source":1
		},
		{
			"sampler":0,
			"source":2
		}
	],
	"images":[
		{
			"mimeType":"image/png",
			"name":"lily_root",
			"uri":"lily_root.png"
		},
		{
			"mimeType":"image/png",
			"name":"lily_root_top",
			"uri":"lily_root_top.png"
		},
		{
			"mimeType":"image/png",
			"name":"whitelilyflower.png.001",
			"uri":"whitelilyflower.png"
		}
	],
	"accessors":[
		{
			"bufferView":0,
			"componentType":5126,
			"count":4689,
			"max":[
				1.3901236057281494,
				0.1548527628183365,
				0.8418481945991516
			],
			"min":[
				-3.538712739944458,
				-1.106278419494629,
				-1.3268588781356812
			],
			"type":"VEC3"
		},
		{
			"bufferView":1,
			"componentType":5126,
			"count":4689,
			"type":"VEC3"
		},
		{
			"bufferView":2,
			"componentType":5126,
			"count":4689,
			"type":"VEC2"
		},
		{
			"bufferView":3,
			"componentType":5123,
			"count":26682,
			"type":"SCALAR"
		},
		{
			"bufferView":4,
			"componentType":5126,
			"count":324,
			"max":[
				1.5839464664459229,
				0.015024110674858093,
				0.9736446738243103
			],
			"min":[
				1.0630921125411987,
				-0.6695079207420349,
				0.015069879591464996
			],
			"type":"VEC3"
		},
		{
			"bufferView":5,
			"componentType":5126,
			"count":324,
			"type":"VEC3"
		},
		{
			"bufferView":6,
			"componentType":5126,
			"count":324,
			"type":"VEC2"
		},
		{
			"bufferView":7,
			"componentType":5123,
			"count":1725,
			"type":"SCALAR"
		},
		{
			"bufferView":8,
			"componentType":5126,
			"count":6786,
			"max":[
				1.372057318687439,
				1.3048182725906372,
				1.653895378112793
			],
			"min":[
				-0.11017575860023499,
				-1.559410572052002,
				-1.0955829620361328
			],
			"type":"VEC3"
		},
		{
			"bufferView":9,
			"componentType":5126,
			"count":6786,
			"type":"VEC3"
		},
		{
			"bufferView":10,
			"componentType":5126,
			"count":6786,
			"type":"VEC2"
		},
		{
			"bufferView":11,
			"componentType":5123,
			"count":38304,
			"type":"SCALAR"
		}
	],
	"bufferViews":[
		{
			"buffer":0,
			"byteLength":56268,
			"byteOffset":0,
			"target":34962
		},
		{
			"buffer":0,
			"byteLength":56268,
			"byteOffset":56268,
			"target":34962
		},
		{
			"buffer":0,
			"byteLength":37512,
			"byteOffset":112536,
			"target":34962
		},
		{
			"buffer":0,
			"byteLength":53364,
			"byteOffset":150048,
			"target":34963
		},
		{
			"buffer":0,
			"byteLength":3888,
			"byteOffset":203412,
			"target":34962
		},
		{
			"buffer":0,
			"byteLength":3888,
			"byteOffset":207300,
			"target":34962
		},
		{
			"buffer":0,
			"byteLength":2592,
			"byteOffset":211188,
			"target":34962
		},
		{
			"buffer":0,
			"byteLength":3450,
			"byteOffset":213780,
			"target":34963
		},
		{
			"buffer":0,
			"byteLength":81432,
			"byteOffset":217232,
			"target":34962
		},
		{
			"buffer":0,
			"byteLength":81432,
			"byteOffset":298664,
			"target":34962
		},
		{
			"buffer":0,
			"byteLength":54288,
			"byteOffset":380096,
			"target":34962
		},
		{
			"buffer":0,
			"byteLength":76608,
			"byteOffset":434384,
			"target":34963
		}
	],
	"samplers":[
		{
			"magFilter":9729,
			"minFilter":9987
		}
	],
	"buffers":[
		{
			"byteLength":510992,
			"uri":"white_lily1.bin"
		}
	]
}
